<svg xmlns="http://www.w3.org/2000/svg" style="display: none;">
<symbol id="sun" viewBox="0 0 12 12">
<path d="M8.4723 0.0289886C8.58947 0.0782002 8.67383 0.183654 8.69727 0.307855L9.16361 2.8364L11.6921 3.30039C11.8163 3.32382 11.9218 3.40819 11.971 3.52536C12.0202 3.64253 12.0062 3.7761 11.9335 3.88156L10.4736 6L11.9335 8.1161C12.0062 8.22155 12.0202 8.35513 11.971 8.4723C11.9218 8.58947 11.8163 8.67383 11.6921 8.69727L9.16361 9.16361L8.69727 11.6921C8.67383 11.8163 8.58947 11.9218 8.4723 11.971C8.35513 12.0202 8.22155 12.0062 8.1161 11.9335L6 10.4736L3.8839 11.9335C3.77845 12.0062 3.64487 12.0202 3.5277 11.971C3.41053 11.9218 3.32617 11.8163 3.30273 11.6921L2.8364 9.16361L0.307855 8.69727C0.183654 8.67383 0.0782002 8.58947 0.0289886 8.4723C-0.0202231 8.35513 -0.0061626 8.22155 0.0664831 8.1161L1.52643 6L0.0664831 3.8839C-0.0061626 3.77845 -0.0202231 3.64487 0.0289886 3.5277C0.0782002 3.41053 0.183654 3.32617 0.307855 3.30273L2.8364 2.8364L3.30273 0.307855C3.32617 0.183654 3.41053 0.0782002 3.5277 0.0289886C3.64487 -0.0202231 3.77845 -0.0061626 3.8839 0.0664831L6 1.52643L8.1161 0.0664831C8.22155 -0.0061626 8.35513 -0.0202231 8.4723 0.0289886ZM3.75033 6C3.75033 5.40335 3.98734 4.83114 4.40924 4.40924C4.83114 3.98734 5.40335 3.75033 6 3.75033C6.59665 3.75033 7.16886 3.98734 7.59076 4.40924C8.01266 4.83114 8.24967 5.40335 8.24967 6C8.24967 6.59665 8.01266 7.16886 7.59076 7.59076C7.16886 8.01266 6.59665 8.24967 6 8.24967C5.40335 8.24967 4.83114 8.01266 4.40924 7.59076C3.98734 7.16886 3.75033 6.59665 3.75033 6ZM8.99957 6C8.99957 5.20447 8.68354 4.44151 8.12101 3.87899C7.55849 3.31646 6.79553 3.00043 6 3.00043C5.20447 3.00043 4.44151 3.31646 3.87899 3.87899C3.31646 4.44151 3.00043 5.20447 3.00043 6C3.00043 6.79553 3.31646 7.55849 3.87899 8.12101C4.44151 8.68354 5.20447 8.99957 6 8.99957C6.79553 8.99957 7.55849 8.68354 8.12101 8.12101C8.68354 7.55849 8.99957 6.79553 8.99957 6Z" fill="white"/>
</symbol>
<symbol id="moon" viewBox="0 0 21 21">
<path fill-rule="evenodd" clip-rule="evenodd" d="M14.0532 14.315C10.1686 14.315 7.01929 11.4278 7.01929 7.86821C7.01929 6.5253 7.46679 5.28158 8.23143 4.25C5.19036 5.19515 3 7.83122 3 10.9381C3 14.8385 6.44929 18 10.7036 18C14.0929 18 16.9696 15.9932 18 13.2045C16.875 13.9048 15.5161 14.315 14.0532 14.315Z" fill="white" stroke="#111517" stroke-width="1.25"/>
</symbol>
<symbol id="glass" viewBox="0 0 18 18">
<path fill-rule="evenodd" clip-rule="evenodd" d="M12.5 11.25H11.7L11.4 10.95C12.4 9.85 13 8.35 13 6.75C13 3.15 10.1 0.25 6.5 0.25C2.9 0.25 0 3.15 0 6.75C0 10.35 2.9 13.25 6.5 13.25C8.1 13.25 9.6 12.65 10.7 11.65L11 11.95V12.75L16 17.75L17.5 16.25L12.5 11.25ZM6.5 11.25C4 11.25 2 9.25 2 6.75C2 4.25 4 2.25 6.5 2.25C9 2.25 11 4.25 11 6.75C11 9.25 9 11.25 6.5 11.25Z" fill="currentcolor"/>
</symbol>
<symbol id="expand-more" viewBox="0 0 9 6">
<path  fill-rule="evenodd" clip-rule="evenodd" d="M7.95 0.375L4.5 3.825L1.05 0.375L0 1.425L4.5 5.925L9 1.425L7.95 0.375Z" fill="currentcolor"/>
</symbol>
<symbol
  id="search"
  viewBox="0 0 24 24"
  fill="none"
  stroke="currentColor"
  stroke-width="1"
  stroke-linecap="round"
  stroke-linejoin="round"
>
  <circle cx="11" cy="11" r="8" />
  <line x1="21" y1="21" x2="16.65" y2="16.65" />
</symbol>
<symbol id="go-back" viewBox="0 0 23 22">
<path id="Shape" fill-rule="evenodd" clip-rule="evenodd" d="M7.57039 4.37085L8.95741 5.69667L4.38026 10.0719L21.8567 10.0719L21.8567 11.928L4.38025 11.928L8.95741 16.3033L7.57039 17.6291L0.635309 11L7.57039 4.37085Z" fill="currentColor"/>
</symbol>
</svg>